#!OML:ASF H:\LiuWeirdWalks\Patient Classification 1\Patient 1\Session 1\male.ASF
:FULLY-SPECIFIED
:DEGREES
1575
root 1.61818 18.1256 38.0468 7.5378 4.7115 0.853895
lowerback -5.4234 3.46566 2.40941
upperback -2.0135 4.51241 -1.21251
thorax 1.2431 2.25115 -2.29486
lowerneck -21.8712 -4.07119 -0.280381
upperneck 25.4619 -5.4401 -0.812514
head 11.9817 -2.55911 -1.15354
rclavicle 4.01623e-014 1.15295e-014
rhumerus -41.2495 -24.6596 -71.44
rradius 27.0635
rwrist -3.68455
rhand -17.5092 -3.39916
rfingers 7.12502
rthumb 8.74398 -33.198
lclavicle 4.01623e-014 1.15295e-014
lhumerus -34.593 -8.88586 86.1864
lradius 28.5623
lwrist 11.1391
lhand -14.0324 -3.2064
lfingers 7.12502
lthumb 12.0979 26.4239
rfemur -13.3775 -0.870307 19.9954
rtibia 29.2749
rfoot -14.3716 -22.3196
rtoes -1.83734
lfemur -12.8808 -2.29395 -19.5612
ltibia 23.5823
lfoot -9.70757 12.2147
ltoes -8.4017
1576
root 1.63038 18.1258 38.0613 7.57696 4.64947 0.75133
lowerback -5.51871 3.52623 2.51506
upperback -2.07008 4.58625 -1.25126
thorax 1.2534 2.28741 -2.38386
lowerneck -21.7723 -4.06244 -0.299463
upperneck 25.5083 -5.41548 -0.832874
head 11.9804 -2.55273 -1.15237
rclavicle -3.49158e-014 -2.45002e-014
rhumerus -41.2654 -24.6546 -71.5674
rradius 27.0505
rwrist -3.70041
rhand -17.5185 -3.36919
rfingers 7.12502
rthumb 8.73504 -33.1684
lclavicle -3.49158e-014 -2.45002e-014
lhumerus -34.6289 -8.79959 86.0385
lradius 28.48
lwrist 11.1863
lhand -14.0506 -3.20004
lfingers 7.12502
lthumb 12.0803 26.4313
rfemur -13.356 -0.86174 20.0699
rtibia 29.2132
rfoot -14.2382 -22.2436
rtoes -1.75179
lfemur -12.8932 -2.34285 -19.4978
ltibia 23.6399
lfoot -9.74372 12.3735
ltoes -8.38421
1577
root 1.64213 18.1257 38.0758 7.61092 4.5899 0.65096
lowerback -5.59923 3.59228 2.6292
upperback -2.10768 4.66718 -1.29604
thorax 1.27697 2.32755 -2.48325
lowerneck -21.759 -4.06228 -0.32631
upperneck 25.5688 -5.40344 -0.84276
head 12.002 -2.55055 -1.15062
rclavicle -3.349e-014 -2.05618e-015
rhumerus -41.241 -24.691 -71.697
rradius 27.0367
rwrist -3.67884
rhand -17.5131 -3.35868
rfingers 7.12502
rthumb 8.74018 -33.1577
lclavicle -3.349e-014 -2.05618e-015
lhumerus -34.6264 -8.74895 85.8994
lradius 28.4081
lwrist 11.2283
lhand -14.0621 -3.19566
lfingers 7.12502
lthumb 12.0692 26.4363
rfemur -13.3246 -0.855337 20.144
rtibia 29.1494
rfoot -14.123 -22.1695
rtoes -1.70244
lfemur -12.9029 -2.3853 -19.4369
ltibia 23.7026
lfoot -9.786 12.5289
ltoes -8.40025
1578
root 1.65325 18.1252 38.0906 7.6242 4.53359 0.549184
lowerback -5.66025 3.66452 2.75479
upperback -2.13141 4.75607 -1.34343
thorax 1.30604 2.37191 -2.59159
lowerneck -21.7727 -4.07025 -0.361413
upperneck 25.6301 -5.40229 -0.844677
head 12.0298 -2.55275 -1.14706
rclavicle 4.81538e-015 1.57288e-014
rhumerus -41.1994 -24.7483 -71.8242
rradius 27.0226
rwrist -3.65727
rhand -17.5093 -3.33861
rfingers 7.12502
rthumb 8.7439 -33.1375
lclavicle 4.81538e-015 1.57288e-014
lhumerus -34.6066 -8.74586 85.7797
lradius 28.337
lwrist 11.2642
lhand -14.07 -3.1891
lfingers 7.12502
lthumb 12.0616 26.4433
rfemur -13.2678 -0.841441 20.2208
rtibia 29.0876
rfoot -14.04 -22.1055
rtoes -1.67357
lfemur -12.9036 -2.41175 -19.3743
ltibia 23.795
lfoot -9.84409 12.6734
ltoes -8.40882
1579
root 1.66464 18.1248 38.1064 7.64614 4.46848 0.439558
lowerback -5.74297 3.74869 2.90957
upperback -2.13241 4.85857 -1.39812
thorax 1.37503 2.4239 -2.71992
lowerneck -21.8754 -4.0871 -0.399775
upperneck 25.7048 -5.41525 -0.837312
head 12.0807 -2.55954 -1.14444
rclavicle -1.48149e-014 1.3244e-014
rhumerus -41.1097 -24.8343 -71.9683
rradius 27.0128
rwrist -3.64061
rhand -17.5011 -3.34075
rfingers 7.12502
rthumb 8.75181 -33.1393
lclavicle -1.48149e-014 1.3244e-014
lhumerus -34.5357 -8.7896 85.675
lradius 28.2643
lwrist 11.3265
lhand -14.0751 -3.14752
lfingers 7.12502
lthumb 12.0567 26.4852
rfemur -13.2138 -0.824422 20.3037
rtibia 29.0193
rfoot -13.978 -22.0356
rtoes -1.67885
lfemur -12.9182 -2.42111 -19.305
ltibia 23.9048
lfoot -9.92202 12.8135
ltoes -8.4332
1580
root 1.67532 18.1234 38.1211 7.7443 4.41414 0.280579
lowerback -5.90506 3.83652 3.11544
upperback -2.14754 4.96042 -1.44472
thorax 1.47768 2.47592 -2.86311
lowerneck -22.0048 -4.11251 -0.450521
upperneck 25.7841 -5.44037 -0.81496
head 12.1397 -2.57067 -1.13702
rclavicle -8.5159e-015 1.21756e-014
rhumerus -40.9968 -24.9357 -72.1157
rradius 27.0058
rwrist -3.59811
rhand -17.4606 -3.37811
rfingers 7.12502
rthumb 8.79086 -33.175
lclavicle -8.5159e-015 1.21756e-014
lhumerus -34.4454 -8.8449 85.575
lradius 28.1855
lwrist 11.3626
lhand -14.0587 -3.08106
lfingers 7.12502
lthumb 12.0725 26.5507
rfemur -13.2543 -0.79473 20.4458
rtibia 28.9513
rfoot -13.9153 -21.9846
rtoes -1.69592
lfemur -13.0418 -2.41024 -19.1733
ltibia 24.0361
lfoot -10.0047 12.9272
ltoes -8.44557
